<svg width="78" height="78" viewBox="0 0 78 78" fill="none" xmlns="http://www.w3.org/2000/svg">
<path d="M58.5 43.875V7.3125C58.5 6.66603 58.7568 6.04605 59.2139 5.58893C59.671 5.13181 60.291 4.875 60.9375 4.875H73.125C73.7715 4.875 74.3915 5.13181 74.8486 5.58893C75.3057 6.04605 75.5625 6.66603 75.5625 7.3125V43.875C75.5625 44.5215 75.3057 45.1415 74.8486 45.5986C74.3915 46.0557 73.7715 46.3125 73.125 46.3125H60.9375C60.291 46.3125 59.671 46.0557 59.2139 45.5986C58.7568 45.1415 58.5 44.5215 58.5 43.875ZM2.4375 34.125C2.43814 35.3519 2.74746 36.5589 3.337 37.6349C3.92653 38.7109 4.77731 39.6212 5.811 40.2821C5.18536 41.3956 4.86197 42.6534 4.87295 43.9306C4.88392 45.2078 5.22889 46.4599 5.87358 47.5624C6.51827 48.665 7.44023 49.5797 8.54788 50.2156C9.65552 50.8516 10.9103 51.1866 12.1875 51.1875H31.6534C31.6241 54.0564 31.5924 58.9583 31.6875 63.4238C31.8411 71.097 39.7264 73.125 43.875 73.125C44.5599 73.125 45.2156 72.8325 45.6787 72.3279C46.1419 71.8234 46.3661 71.1409 46.3003 70.4559C45.7884 65.0496 45.4033 56.5134 46.1638 54.4611C46.9657 52.2673 50.5099 46.7951 52.4769 43.875H53.625V9.57694C51.8797 8.90906 48.3892 7.6245 46.7122 7.34662C46.5801 7.32454 46.4464 7.31313 46.3125 7.3125H14.625C13.3478 7.31337 12.093 7.64842 10.9854 8.28436C9.87773 8.9203 8.95577 9.835 8.31108 10.9376C7.66639 12.0401 7.32142 13.2922 7.31045 14.5694C7.29947 15.8466 7.62286 17.1044 8.2485 18.2179C6.67313 19.2237 5.54269 20.7945 5.08938 22.6078C4.63606 24.421 4.89428 26.3391 5.811 27.9679C4.77731 28.6288 3.92653 29.5391 3.337 30.6151C2.74746 31.6911 2.43814 32.8981 2.4375 34.125Z" fill="#4C8CC9"/>
</svg>
