<svg width="22" height="22" viewBox="0 0 22 22" fill="none" xmlns="http://www.w3.org/2000/svg">
<path d="M19.25 9.16665H2.75M14.6667 1.83331V5.49998M7.33333 1.83331V5.49998M7.15 20.1666H14.85C16.3901 20.1666 17.1602 20.1666 17.7485 19.8669C18.2659 19.6033 18.6866 19.1826 18.9503 18.6651C19.25 18.0769 19.25 17.3068 19.25 15.7666V8.06665C19.25 6.5265 19.25 5.75643 18.9503 5.16817C18.6866 4.65073 18.2659 4.23003 17.7485 3.96638C17.1602 3.66665 16.3901 3.66665 14.85 3.66665H7.15C5.60986 3.66665 4.83978 3.66665 4.25153 3.96638C3.73408 4.23003 3.31338 4.65073 3.04973 5.16817C2.75 5.75643 2.75 6.5265 2.75 8.06665V15.7666C2.75 17.3068 2.75 18.0769 3.04973 18.6651C3.31338 19.1826 3.73408 19.6033 4.25153 19.8669C4.83978 20.1666 5.60986 20.1666 7.15 20.1666Z" stroke="#4C8CC9" stroke-linecap="round" stroke-linejoin="round"/>
</svg>
