<svg width="28" height="28" viewBox="0 0 28 28" fill="none" xmlns="http://www.w3.org/2000/svg">
<path d="M18.6667 6.99992V6.06659C18.6667 4.7598 18.6667 4.1064 18.4123 3.60727C18.1886 3.16823 17.8317 2.81127 17.3926 2.58757C16.8935 2.33325 16.2401 2.33325 14.9333 2.33325H13.0667C11.7599 2.33325 11.1065 2.33325 10.6074 2.58757C10.1683 2.81127 9.81136 3.16823 9.58765 3.60727C9.33333 4.1064 9.33333 4.7598 9.33333 6.06659V6.99992M11.6667 13.4166V19.2499M16.3333 13.4166V19.2499M3.5 6.99992H24.5M22.1667 6.99992V20.0666C22.1667 22.0268 22.1667 23.0069 21.7852 23.7556C21.4496 24.4141 20.9142 24.9496 20.2556 25.2851C19.5069 25.6666 18.5268 25.6666 16.5667 25.6666H11.4333C9.47315 25.6666 8.49306 25.6666 7.74437 25.2851C7.0858 24.9496 6.55037 24.4141 6.21481 23.7556C5.83333 23.0069 5.83333 22.0268 5.83333 20.0666V6.99992" stroke="white" stroke-width="2" stroke-linecap="round" stroke-linejoin="round"/>
</svg>
