<svg width="22" height="22" viewBox="0 0 22 22" fill="none" xmlns="http://www.w3.org/2000/svg">
<path d="M12.9352 6.16201H18.4621C18.8721 6.16201 19.0771 6.16201 19.197 6.24821C19.3016 6.32343 19.3697 6.4392 19.3847 6.56717C19.4018 6.71384 19.3022 6.89305 19.1031 7.25148L17.756 9.67624C17.6838 9.80623 17.6477 9.87122 17.6336 9.94005C17.621 10.001 17.621 10.0638 17.6336 10.1247C17.6477 10.1935 17.6838 10.2585 17.756 10.3885L19.1031 12.8133C19.3022 13.1717 19.4018 13.3509 19.3847 13.4976C19.3697 13.6256 19.3016 13.7413 19.197 13.8165C19.0771 13.9027 18.8721 13.9027 18.4621 13.9027H11.4991C10.9857 13.9027 10.7291 13.9027 10.533 13.8028C10.3605 13.715 10.2203 13.5747 10.1324 13.4022C10.0325 13.2062 10.0325 12.9495 10.0325 12.4361V10.0324M6.64589 19.7086L2.77552 4.22707M4.22695 10.0324H11.4686C11.982 10.0324 12.2386 10.0324 12.4347 9.93252C12.6072 9.84463 12.7474 9.7044 12.8353 9.53192C12.9352 9.33583 12.9352 9.07914 12.9352 8.56576V3.75835C12.9352 3.24497 12.9352 2.98828 12.8353 2.7922C12.7474 2.61971 12.6072 2.47948 12.4347 2.3916C12.2386 2.29169 11.982 2.29169 11.4686 2.29169H4.17018C3.52987 2.29169 3.20971 2.29169 2.99074 2.42436C2.79882 2.54064 2.65621 2.72329 2.58995 2.93768C2.51435 3.1823 2.592 3.49289 2.74731 4.11409L4.22695 10.0324Z" stroke="#4C8CC9" stroke-linecap="round" stroke-linejoin="round"/>
</svg>
