<svg width="78" height="78" viewBox="0 0 78 78" fill="none" xmlns="http://www.w3.org/2000/svg">
<path d="M19.5 34.125V70.6875C19.5 71.334 19.2432 71.954 18.7861 72.4111C18.329 72.8682 17.709 73.125 17.0625 73.125H4.875C4.22853 73.125 3.60855 72.8682 3.15143 72.4111C2.69431 71.954 2.4375 71.334 2.4375 70.6875V34.125C2.4375 33.4785 2.69431 32.8585 3.15143 32.4014C3.60855 31.9443 4.22853 31.6875 4.875 31.6875H17.0625C17.709 31.6875 18.329 31.9443 18.7861 32.4014C19.2432 32.8585 19.5 33.4785 19.5 34.125ZM75.5625 43.875C75.5619 42.6481 75.2525 41.4411 74.663 40.3651C74.0735 39.2891 73.2227 38.3788 72.189 37.7179C72.8146 36.6044 73.138 35.3466 73.1271 34.0694C73.1161 32.7922 72.7711 31.5401 72.1264 30.4376C71.4817 29.335 70.5598 28.4203 69.4521 27.7844C68.3445 27.1484 67.0897 26.8134 65.8125 26.8125H46.3466C46.3759 23.9436 46.4076 19.0417 46.3125 14.5763C46.1589 6.903 38.2736 4.875 34.125 4.875C33.4401 4.875 32.7844 5.1675 32.3213 5.67206C31.8581 6.17662 31.6339 6.85913 31.6997 7.54406C32.2116 12.9504 32.5967 21.4866 31.8362 23.5389C31.0343 25.7327 27.4901 31.2049 25.5231 34.125H24.375V68.4231C26.1203 69.0909 29.6108 70.3755 31.2878 70.6534C31.4194 70.6777 31.5559 70.6875 31.6875 70.6875H63.375C64.6522 70.6866 65.907 70.3516 67.0146 69.7156C68.1223 69.0797 69.0442 68.165 69.6889 67.0624C70.3336 65.9599 70.6786 64.7078 70.6896 63.4306C70.7005 62.1534 70.3771 60.8956 69.7515 59.7821C71.3269 58.7763 72.4573 57.2055 72.9106 55.3922C73.3639 53.579 73.1057 51.6609 72.189 50.0321C73.2227 49.3712 74.0735 48.4609 74.663 47.3849C75.2525 46.3089 75.5619 45.1019 75.5625 43.875Z" fill="#4C8CC9"/>
</svg>
