<svg width="22" height="22" viewBox="0 0 22 22" fill="none" xmlns="http://www.w3.org/2000/svg">
<path d="M11 15.5833C11 18.1146 13.052 20.1667 15.5833 20.1667C18.1146 20.1667 20.1666 18.1146 20.1666 15.5833C20.1666 13.052 18.1146 11 15.5833 11C13.052 11 11 13.052 11 15.5833ZM11 15.5833C11 14.5513 11.3411 13.599 11.9166 12.8329V4.58333M11 15.5833C11 16.3399 11.1833 17.0537 11.5079 17.6826C10.7357 18.3349 8.952 18.7917 6.87498 18.7917C4.09054 18.7917 1.83331 17.9709 1.83331 16.9583V4.58333M11.9166 4.58333C11.9166 5.59586 9.65941 6.41667 6.87498 6.41667C4.09054 6.41667 1.83331 5.59586 1.83331 4.58333M11.9166 4.58333C11.9166 3.57081 9.65941 2.75 6.87498 2.75C4.09054 2.75 1.83331 3.57081 1.83331 4.58333M1.83331 12.8333C1.83331 13.8459 4.09054 14.6667 6.87498 14.6667C8.88156 14.6667 10.6144 14.2404 11.4259 13.6233M11.9166 8.70833C11.9166 9.72086 9.65941 10.5417 6.87498 10.5417C4.09054 10.5417 1.83331 9.72086 1.83331 8.70833" stroke="#4C8CC9" stroke-linecap="round" stroke-linejoin="round"/>
</svg>
