<svg width="22" height="22" viewBox="0 0 22 22" fill="none" xmlns="http://www.w3.org/2000/svg">
<path d="M9.16662 12.8333H4.79969C3.43682 12.8333 2.55041 11.3991 3.1599 10.1801L6.36824 3.76344C6.67879 3.14234 7.31361 2.75 8.00802 2.75H11.6909C11.8408 2.75 11.9902 2.76838 12.1356 2.80474L15.5833 3.66667M9.16662 12.8333V17.4167C9.16662 18.4292 9.98744 19.25 11 19.25H11.0875C11.5454 19.25 11.9166 18.8788 11.9166 18.4209C11.9166 17.7661 12.1104 17.1259 12.4736 16.5811L15.5833 11.9167V3.66667M9.16662 12.8333H11M15.5833 3.66667H17.4166C18.4291 3.66667 19.25 4.48748 19.25 5.5V11C19.25 12.0125 18.4291 12.8333 17.4166 12.8333H15.125" stroke="#4C8CC9" stroke-linecap="round" stroke-linejoin="round"/>
</svg>
